# xmcd CD database file
#
# Track frame offsets:
#	150
#	17251
#	34054
#	49105
#	67749
#	91054
#	107803
#	128768
#	146722
#	167946
#	187491
#	203770
#	222017
#
# Disc length: 3286 seconds
#
# Revision: 0
# Processed by: cddbd v1.5.2PL0 Copyright (c) Steve Scherf et al.
# Submitted via: CDex 1.51
#
DISCID=b30cd40d
DTITLE=Carolina Wallin Pérez - Pärlor och Svin
DYEAR=2009
DGENRE=Jazz
TTITLE0=Gravitation
TTITLE1=Ingenting
TTITLE2=Pärlor
TTITLE3=Om du var här
TTITLE4=Klåparen
TTITLE5=Dom andra
TTITLE6=Oproffessionell
TTITLE7=Kevlarsjäl
TTITLE8=Musik non stop
TTITLE9=Utan dina andetag
TTITLE10=När det blåser på månen
TTITLE11=Kärleken väntar
TTITLE12=747
EXTD=YEAR: 2009
EXTT0=
EXTT1=
EXTT2=
EXTT3=
EXTT4=
EXTT5=
EXTT6=
EXTT7=
EXTT8=
EXTT9=
EXTT10=
EXTT11=
EXTT12=
PLAYORDER=
